<mxfile host="app.diagrams.net" agent="Mozilla/5.0 (Windows NT 10.0; Win64; x64) AppleWebKit/537.36 (KHTML, like Gecko) Chrome/131.0.0.0 Safari/537.36" version="24.9.0">
  <diagram name="第 1 页" id="jvOOVeh9dqMkgn7U_io2">
    <mxGraphModel dx="1018" dy="643" grid="1" gridSize="10" guides="1" tooltips="1" connect="1" arrows="1" fold="1" page="1" pageScale="1" pageWidth="827" pageHeight="1169" math="0" shadow="0">
      <root>
        <mxCell id="0" />
        <mxCell id="1" parent="0" />
        <mxCell id="ts_b4AwzRCxGAI4MeD9A-1" value="agent 1" style="rounded=0;whiteSpace=wrap;html=1;" vertex="1" parent="1">
          <mxGeometry x="249" y="150" width="120" height="60" as="geometry" />
        </mxCell>
        <mxCell id="ts_b4AwzRCxGAI4MeD9A-2" value="agent 2" style="rounded=0;whiteSpace=wrap;html=1;" vertex="1" parent="1">
          <mxGeometry x="459" y="150" width="120" height="60" as="geometry" />
        </mxCell>
        <mxCell id="ts_b4AwzRCxGAI4MeD9A-4" value="" style="ellipse;whiteSpace=wrap;html=1;" vertex="1" parent="1">
          <mxGeometry x="159" y="340" width="510" height="130" as="geometry" />
        </mxCell>
        <mxCell id="ts_b4AwzRCxGAI4MeD9A-6" value="controller" style="rounded=0;whiteSpace=wrap;html=1;" vertex="1" parent="1">
          <mxGeometry x="269" y="385" width="100" height="40" as="geometry" />
        </mxCell>
        <mxCell id="ts_b4AwzRCxGAI4MeD9A-8" value="scheduler" style="rounded=0;whiteSpace=wrap;html=1;" vertex="1" parent="1">
          <mxGeometry x="458" y="385" width="100" height="40" as="geometry" />
        </mxCell>
        <mxCell id="ts_b4AwzRCxGAI4MeD9A-9" value="instance1" style="whiteSpace=wrap;html=1;aspect=fixed;" vertex="1" parent="1">
          <mxGeometry x="244" y="545" width="80" height="80" as="geometry" />
        </mxCell>
        <mxCell id="ts_b4AwzRCxGAI4MeD9A-12" value="instance 2" style="whiteSpace=wrap;html=1;aspect=fixed;" vertex="1" parent="1">
          <mxGeometry x="373" y="545" width="80" height="80" as="geometry" />
        </mxCell>
        <mxCell id="ts_b4AwzRCxGAI4MeD9A-13" value="instance 3" style="whiteSpace=wrap;html=1;aspect=fixed;" vertex="1" parent="1">
          <mxGeometry x="503" y="545" width="80" height="80" as="geometry" />
        </mxCell>
        <mxCell id="ts_b4AwzRCxGAI4MeD9A-14" value="" style="endArrow=classic;html=1;rounded=0;entryX=0.5;entryY=0;entryDx=0;entryDy=0;exitX=0.5;exitY=1;exitDx=0;exitDy=0;" edge="1" parent="1" source="ts_b4AwzRCxGAI4MeD9A-8" target="ts_b4AwzRCxGAI4MeD9A-9">
          <mxGeometry width="50" height="50" relative="1" as="geometry">
            <mxPoint x="470" y="460" as="sourcePoint" />
            <mxPoint x="520" y="410" as="targetPoint" />
          </mxGeometry>
        </mxCell>
        <mxCell id="ts_b4AwzRCxGAI4MeD9A-16" value="llm request: model_name, sampling_params, prompt" style="ellipse;whiteSpace=wrap;html=1;" vertex="1" parent="1">
          <mxGeometry x="232" y="250" width="362" height="60" as="geometry" />
        </mxCell>
        <mxCell id="ts_b4AwzRCxGAI4MeD9A-17" value="" style="endArrow=classic;html=1;rounded=0;entryX=0.5;entryY=0;entryDx=0;entryDy=0;exitX=0.5;exitY=1;exitDx=0;exitDy=0;" edge="1" parent="1" source="ts_b4AwzRCxGAI4MeD9A-8" target="ts_b4AwzRCxGAI4MeD9A-12">
          <mxGeometry width="50" height="50" relative="1" as="geometry">
            <mxPoint x="518" y="435" as="sourcePoint" />
            <mxPoint x="294" y="555" as="targetPoint" />
          </mxGeometry>
        </mxCell>
        <mxCell id="ts_b4AwzRCxGAI4MeD9A-18" value="" style="endArrow=classic;html=1;rounded=0;entryX=0.5;entryY=0;entryDx=0;entryDy=0;exitX=0.5;exitY=1;exitDx=0;exitDy=0;" edge="1" parent="1" source="ts_b4AwzRCxGAI4MeD9A-8" target="ts_b4AwzRCxGAI4MeD9A-13">
          <mxGeometry width="50" height="50" relative="1" as="geometry">
            <mxPoint x="528" y="445" as="sourcePoint" />
            <mxPoint x="304" y="565" as="targetPoint" />
          </mxGeometry>
        </mxCell>
        <mxCell id="ts_b4AwzRCxGAI4MeD9A-19" value="" style="endArrow=classic;html=1;rounded=0;entryX=0.5;entryY=0;entryDx=0;entryDy=0;exitX=0.5;exitY=1;exitDx=0;exitDy=0;" edge="1" parent="1" source="ts_b4AwzRCxGAI4MeD9A-16" target="ts_b4AwzRCxGAI4MeD9A-8">
          <mxGeometry width="50" height="50" relative="1" as="geometry">
            <mxPoint x="518" y="435" as="sourcePoint" />
            <mxPoint x="423" y="555" as="targetPoint" />
          </mxGeometry>
        </mxCell>
        <mxCell id="ts_b4AwzRCxGAI4MeD9A-20" value="" style="endArrow=classic;html=1;rounded=0;entryX=0.5;entryY=1;entryDx=0;entryDy=0;exitX=0.5;exitY=0;exitDx=0;exitDy=0;" edge="1" parent="1" source="ts_b4AwzRCxGAI4MeD9A-9" target="ts_b4AwzRCxGAI4MeD9A-6">
          <mxGeometry width="50" height="50" relative="1" as="geometry">
            <mxPoint x="528" y="445" as="sourcePoint" />
            <mxPoint x="433" y="565" as="targetPoint" />
          </mxGeometry>
        </mxCell>
        <mxCell id="ts_b4AwzRCxGAI4MeD9A-21" value="" style="endArrow=classic;html=1;rounded=0;entryX=0.5;entryY=1;entryDx=0;entryDy=0;exitX=0.5;exitY=0;exitDx=0;exitDy=0;" edge="1" parent="1" source="ts_b4AwzRCxGAI4MeD9A-12" target="ts_b4AwzRCxGAI4MeD9A-6">
          <mxGeometry width="50" height="50" relative="1" as="geometry">
            <mxPoint x="538" y="455" as="sourcePoint" />
            <mxPoint x="443" y="575" as="targetPoint" />
          </mxGeometry>
        </mxCell>
        <mxCell id="ts_b4AwzRCxGAI4MeD9A-22" value="" style="endArrow=classic;html=1;rounded=0;entryX=0.5;entryY=1;entryDx=0;entryDy=0;exitX=0.5;exitY=0;exitDx=0;exitDy=0;" edge="1" parent="1" source="ts_b4AwzRCxGAI4MeD9A-13" target="ts_b4AwzRCxGAI4MeD9A-6">
          <mxGeometry width="50" height="50" relative="1" as="geometry">
            <mxPoint x="548" y="465" as="sourcePoint" />
            <mxPoint x="453" y="585" as="targetPoint" />
          </mxGeometry>
        </mxCell>
        <mxCell id="ts_b4AwzRCxGAI4MeD9A-24" value="" style="endArrow=classic;html=1;rounded=0;entryX=0.5;entryY=0;entryDx=0;entryDy=0;exitX=0.5;exitY=1;exitDx=0;exitDy=0;" edge="1" parent="1" source="ts_b4AwzRCxGAI4MeD9A-1" target="ts_b4AwzRCxGAI4MeD9A-16">
          <mxGeometry width="50" height="50" relative="1" as="geometry">
            <mxPoint x="558" y="475" as="sourcePoint" />
            <mxPoint x="463" y="595" as="targetPoint" />
          </mxGeometry>
        </mxCell>
        <mxCell id="ts_b4AwzRCxGAI4MeD9A-25" value="" style="endArrow=classic;html=1;rounded=0;entryX=0.5;entryY=0;entryDx=0;entryDy=0;exitX=0.5;exitY=1;exitDx=0;exitDy=0;" edge="1" parent="1" source="ts_b4AwzRCxGAI4MeD9A-2" target="ts_b4AwzRCxGAI4MeD9A-16">
          <mxGeometry width="50" height="50" relative="1" as="geometry">
            <mxPoint x="568" y="485" as="sourcePoint" />
            <mxPoint x="473" y="605" as="targetPoint" />
          </mxGeometry>
        </mxCell>
        <mxCell id="ts_b4AwzRCxGAI4MeD9A-26" value="1. model_name&lt;div&gt;2. prompt context (global radix tree)&lt;/div&gt;&lt;div&gt;3. slo&lt;/div&gt;" style="whiteSpace=wrap;html=1;shape=mxgraph.basic.oval_callout" vertex="1" parent="1">
          <mxGeometry x="540" y="310" width="240" height="90" as="geometry" />
        </mxCell>
      </root>
    </mxGraphModel>
  </diagram>
</mxfile>
